<svg width="132" height="132" viewBox="0 0 132 132" fill="none" xmlns="http://www.w3.org/2000/svg">
<path fill-rule="evenodd" clip-rule="evenodd" d="M66 132C102.451 132 132 102.451 132 66C132 29.5492 102.451 0 66 0C29.5492 0 0 29.5492 0 66C0 102.451 29.5492 132 66 132ZM66 125C98.5848 125 125 98.5848 125 66C125 33.4152 98.5848 7 66 7C33.4152 7 7 33.4152 7 66C7 98.5848 33.4152 125 66 125Z" fill="#18ACC4"/>
<path fill-rule="evenodd" clip-rule="evenodd" d="M71 36C71 33.2386 68.7614 31 66 31C63.2386 31 61 33.2386 61 36V61H36C33.2386 61 31 63.2386 31 66C31 68.7614 33.2386 71 36 71H61V96C61 98.7614 63.2386 101 66 101C68.7614 101 71 98.7614 71 96V71H96C98.7614 71 101 68.7614 101 66C101 63.2386 98.7614 61 96 61H71V36Z" fill="#18ACC4"/>
</svg>
