<svg width="32" height="32" viewBox="0 0 32 32" fill="none" xmlns="http://www.w3.org/2000/svg">
<path d="M16 29C8.83154 29 3 23.168 3 16C3 8.83203 8.83154 3 16 3C23.1685 3 29 8.83203 29 16C29 23.168 23.1685 29 16 29ZM16 5C9.93457 5 5 9.93457 5 16C5 22.0654 9.93457 27 16 27C22.0654 27 27 22.0654 27 16C27 9.93457 22.0654 5 16 5Z" fill="white"/>
<path d="M16 21C15.4478 21 15 20.5527 15 20V12C15 11.4473 15.4478 11 16 11C16.5522 11 17 11.4473 17 12V20C17 20.5527 16.5522 21 16 21Z" fill="white"/>
<path d="M20 17H12C11.4478 17 11 16.5527 11 16C11 15.4473 11.4478 15 12 15H20C20.5522 15 21 15.4473 21 16C21 16.5527 20.5522 17 20 17Z" fill="white"/>
</svg>
