<svg width="32" height="32" viewBox="0 0 32 32" fill="none" xmlns="http://www.w3.org/2000/svg">
<path d="M24 22C23.7663 22.0005 23.5399 21.9191 23.36 21.77L18.84 18H17C14.8783 18 12.8434 17.1571 11.3431 15.6569C9.84285 14.1566 9 12.1217 9 10C9 7.87827 9.84285 5.84344 11.3431 4.34315C12.8434 2.84285 14.8783 2 17 2H23C24.9431 2.00555 26.8178 2.71814 28.274 4.00472C29.7303 5.2913 30.6684 7.06391 30.9133 8.99156C31.1583 10.9192 30.6932 12.8701 29.6051 14.48C28.5169 16.0899 26.88 17.2487 25 17.74V21C25.0005 21.1913 24.9461 21.3787 24.8433 21.5399C24.7405 21.7012 24.5936 21.8297 24.42 21.91C24.2882 21.9701 24.1449 22.0008 24 22V22ZM17 4C15.4087 4 13.8826 4.63214 12.7574 5.75736C11.6321 6.88258 11 8.4087 11 10C11 11.5913 11.6321 13.1174 12.7574 14.2426C13.8826 15.3679 15.4087 16 17 16H19.2C19.4337 15.9995 19.6601 16.0809 19.84 16.23L23 18.86V16.92C22.9976 16.6773 23.0835 16.4421 23.2418 16.2581C23.4 16.0741 23.6197 15.954 23.86 15.92C25.3378 15.6778 26.6716 14.8918 27.5994 13.7163C28.5272 12.5408 28.9819 11.0609 28.8741 9.56722C28.7663 8.07359 28.1039 6.67425 27.017 5.64412C25.9301 4.61399 24.4973 4.02754 23 4H17Z" fill="white"/>
<path d="M21 9H19V11H21V9Z" fill="white"/>
<path d="M16 9H14V11H16V9Z" fill="white"/>
<path d="M26 9H24V11H26V9Z" fill="white"/>
<path d="M8 30C7.85513 30.0008 7.71183 29.9701 7.58 29.91C7.40642 29.8297 7.25952 29.7012 7.15672 29.5399C7.05392 29.3786 6.99953 29.1913 7 29V25.74C5.40887 25.3161 3.98731 24.4115 2.92932 23.1498C1.87134 21.888 1.22848 20.3305 1.08847 18.6898C0.948471 17.0492 1.31815 15.4053 2.14705 13.9825C2.97595 12.5597 4.2237 11.4274 5.72 10.74C5.84077 10.6763 5.97329 10.6381 6.1094 10.6276C6.24551 10.6171 6.38233 10.6346 6.51142 10.679C6.64052 10.7234 6.75915 10.7938 6.86002 10.8858C6.96089 10.9778 7.04186 11.0894 7.09794 11.2139C7.15401 11.3383 7.18401 11.473 7.18609 11.6095C7.18816 11.746 7.16226 11.8815 7.10999 12.0076C7.05772 12.1337 6.98019 12.2477 6.88216 12.3428C6.78413 12.4378 6.66768 12.5117 6.54 12.56C5.35993 13.095 4.38476 13.9977 3.76035 15.133C3.13593 16.2684 2.89581 17.5753 3.0759 18.8585C3.25599 20.1416 3.84661 21.3319 4.75943 22.2515C5.67225 23.1711 6.85823 23.7705 8.14 23.96C8.38028 23.9939 8.60001 24.1141 8.75823 24.2981C8.91646 24.4821 9.00239 24.7173 9 24.96V26.9L12.16 24.27C12.3342 24.1064 12.5613 24.0106 12.8 24H15C15.8008 24.0015 16.5937 23.841 17.3309 23.5283C18.0682 23.2155 18.7345 22.7569 19.29 22.18C19.4757 21.989 19.7296 21.8796 19.9959 21.8759C20.1277 21.874 20.2587 21.8982 20.3812 21.9469C20.5037 21.9957 20.6154 22.0681 20.71 22.16C20.8046 22.2519 20.8801 22.3616 20.9322 22.4827C20.9844 22.6038 21.0122 22.734 21.0141 22.8658C21.0159 22.9977 20.9918 23.1286 20.9431 23.2512C20.8943 23.3737 20.8219 23.4854 20.73 23.58C19.9849 24.3455 19.094 24.954 18.1098 25.3697C17.1257 25.7853 16.0683 25.9996 15 26H13.16L8.64 29.77C8.46009 29.9191 8.23365 30.0004 8 30V30Z" fill="white"/>
</svg>
