<svg width="32" height="32" viewBox="0 0 32 32" fill="none" xmlns="http://www.w3.org/2000/svg">
<path d="M10 23C9.74414 23 9.48828 22.9023 9.29297 22.707C8.90234 22.3164 8.90234 21.6836 9.29297 21.293L21.293 9.29297C21.6836 8.90234 22.3164 8.90234 22.707 9.29297C23.0977 9.68359 23.0977 10.3164 22.707 10.707L10.707 22.707C10.5117 22.9023 10.2559 23 10 23Z" fill="white"/>
<path d="M22 23C21.7441 23 21.4883 22.9023 21.293 22.707L9.29297 10.707C8.90234 10.3164 8.90234 9.68359 9.29297 9.29297C9.68359 8.90234 10.3164 8.90234 10.707 9.29297L22.707 21.293C23.0977 21.6836 23.0977 22.3164 22.707 22.707C22.5117 22.9023 22.2559 23 22 23Z" fill="white"/>
</svg>
