<svg width="32" height="32" viewBox="0 0 32 32" fill="none" xmlns="http://www.w3.org/2000/svg">
<path d="M16 13.8C15.7533 13.8 15.5168 13.898 15.3424 14.0724C15.168 14.2468 15.07 14.4834 15.07 14.73V21.13C15.07 21.378 15.1685 21.6158 15.3439 21.7912C15.5192 21.9665 15.757 22.065 16.005 22.065C16.253 22.065 16.4908 21.9665 16.6661 21.7912C16.8415 21.6158 16.94 21.378 16.94 21.13V14.73C16.94 14.607 16.9156 14.4853 16.8683 14.3718C16.8209 14.2583 16.7515 14.1553 16.6641 14.0688C16.5767 13.9823 16.473 13.9141 16.359 13.8679C16.245 13.8218 16.123 13.7987 16 13.8Z" fill="#007A8D"/>
<path d="M16 9.92999C15.7533 9.92999 15.5168 10.028 15.3424 10.2024C15.168 10.3768 15.07 10.6133 15.07 10.86V11.79C15.07 12.038 15.1685 12.2758 15.3439 12.4511C15.5192 12.6265 15.757 12.725 16.005 12.725C16.253 12.725 16.4908 12.6265 16.6661 12.4511C16.8415 12.2758 16.94 12.038 16.94 11.79V10.86C16.94 10.737 16.9156 10.6153 16.8683 10.5018C16.8209 10.3883 16.7515 10.2853 16.6641 10.1988C16.5767 10.1123 16.473 10.044 16.359 9.99789C16.245 9.95174 16.123 9.92866 16 9.92999Z" fill="#007A8D"/>
<path d="M16 2C13.2311 2 10.5243 2.82109 8.22201 4.35943C5.91973 5.89777 4.12531 8.08427 3.06569 10.6424C2.00606 13.2006 1.72881 16.0155 2.269 18.7313C2.8092 21.447 4.14257 23.9416 6.1005 25.8995C8.05844 27.8574 10.553 29.1908 13.2687 29.731C15.9845 30.2712 18.7994 29.9939 21.3576 28.9343C23.9157 27.8747 26.1022 26.0803 27.6406 23.778C29.1789 21.4757 30 18.7689 30 16C30 12.287 28.525 8.72601 25.8995 6.1005C23.274 3.475 19.713 2 16 2ZM16 28.13C13.6009 28.13 11.2557 27.4186 9.26093 26.0857C7.26616 24.7529 5.71143 22.8584 4.79334 20.642C3.87525 18.4255 3.63503 15.9865 4.10307 13.6336C4.57111 11.2806 5.72638 9.11921 7.42279 7.42279C9.1192 5.72638 11.2806 4.57111 13.6336 4.10307C15.9865 3.63504 18.4255 3.87525 20.6419 4.79334C22.8584 5.71143 24.7529 7.26616 26.0857 9.26093C27.4186 11.2557 28.13 13.6009 28.13 16C28.1247 19.2155 26.845 22.2977 24.5714 24.5714C22.2977 26.845 19.2155 28.1247 16 28.13Z" fill="#007A8D"/>
</svg>
