<svg width="30" height="30" viewBox="0 0 30 30" fill="none" xmlns="http://www.w3.org/2000/svg">
<path d="M3.57187 23.8207H26.4281C27.5092 23.8207 28.3887 22.9412 28.3887 21.8601V10.3248V8.14042C28.3887 7.05936 27.5092 6.17987 26.4281 6.17987H3.57187C2.49082 6.17987 1.61133 7.05936 1.61133 8.14042V10.3248V21.8601C1.61133 22.9406 2.49082 23.8207 3.57187 23.8207ZM26.4281 21.9457H3.57187C3.525 21.9457 3.48633 21.9076 3.48633 21.8601V11.8371L14.5828 17.3525C14.7141 17.4176 14.857 17.4504 15 17.4504C15.143 17.4504 15.2859 17.4176 15.4172 17.3525L26.5137 11.8371V21.8596C26.5137 21.907 26.475 21.9457 26.4281 21.9457ZM3.48633 8.14042C3.48633 8.09296 3.525 8.05487 3.57187 8.05487H26.4281C26.475 8.05487 26.5137 8.09296 26.5137 8.14042V9.74354L15 15.4664L3.48633 9.74354V8.14042Z" fill="white"/>
</svg>
