<svg width="32" height="32" viewBox="0 0 32 32" fill="none" xmlns="http://www.w3.org/2000/svg">
<path d="M16 5.73001C14.8924 5.73001 13.8097 6.05845 12.8888 6.67378C11.9679 7.28912 11.2501 8.16372 10.8263 9.18698C10.4024 10.2102 10.2915 11.3362 10.5076 12.4225C10.7237 13.5088 11.257 14.5066 12.0402 15.2898C12.8234 16.073 13.8212 16.6063 14.9075 16.8224C15.9938 17.0385 17.1198 16.9276 18.143 16.5037C19.1663 16.0799 20.0409 15.3621 20.6562 14.4412C21.2716 13.5203 21.6 12.4376 21.6 11.33C21.5974 9.84561 21.0065 8.42276 19.9569 7.37313C18.9072 6.3235 17.4844 5.73265 16 5.73001ZM16 15.06C15.2623 15.06 14.5411 14.8413 13.9277 14.4314C13.3143 14.0215 12.8362 13.439 12.5539 12.7574C12.2716 12.0759 12.1977 11.3259 12.3417 10.6023C12.4856 9.87877 12.8408 9.21415 13.3625 8.6925C13.8841 8.17085 14.5488 7.8156 15.2723 7.67168C15.9959 7.52776 16.7458 7.60163 17.4274 7.88394C18.109 8.16625 18.6915 8.64434 19.1014 9.25773C19.5112 9.87113 19.73 10.5923 19.73 11.33C19.73 12.3202 19.3373 13.27 18.6381 13.9711C17.9389 14.6722 16.9902 15.0674 16 15.07V15.06Z" fill="#007A8D"/>
<path d="M16 2C13.1994 2.00616 10.465 2.85213 8.15022 4.42858C5.83544 6.00504 4.04667 8.23951 3.01509 10.8432C1.98351 13.4469 1.75655 16.3002 2.36354 19.0342C2.97052 21.7683 4.38355 24.2574 6.42 26.18C6.49495 26.2819 6.59031 26.367 6.7 26.43C9.26895 28.7401 12.6056 30.0115 16.0604 29.9967C19.5152 29.9819 22.8409 28.682 25.39 26.35L25.51 26.25C27.5671 24.3362 29.0008 21.8476 29.6246 19.108C30.2483 16.3684 30.0333 13.5044 29.0075 10.8887C27.9817 8.27288 26.1925 6.02628 23.8727 4.44103C21.5529 2.85578 18.8097 2.00524 16 2ZM8.27 25.35C8.91293 23.8328 9.98837 22.5386 11.3622 21.6287C12.7359 20.7188 14.3472 20.2336 15.995 20.2336C17.6428 20.2336 19.2541 20.7188 20.6278 21.6287C22.0016 22.5386 23.0771 23.8328 23.72 25.35C21.5478 27.1493 18.8156 28.1339 15.995 28.1339C13.1744 28.1339 10.4422 27.1493 8.27 25.35ZM25.14 24C24.2822 22.3146 22.9749 20.8993 21.3627 19.9108C19.7504 18.9223 17.8961 18.3991 16.005 18.3991C14.1139 18.3991 12.2596 18.9223 10.6473 19.9108C9.0351 20.8993 7.72777 22.3146 6.87 24C5.33735 22.2456 4.3423 20.087 4.00376 17.7822C3.66523 15.4774 3.99755 13.1238 4.96098 11.0028C5.92442 8.88186 7.47823 7.08316 9.4367 5.82172C11.3952 4.56029 13.6754 3.88948 16.005 3.88948C18.3346 3.88948 20.6148 4.56029 22.5733 5.82172C24.5318 7.08316 26.0856 8.88186 27.049 11.0028C28.0125 13.1238 28.3448 15.4774 28.0062 17.7822C27.6677 20.087 26.6726 22.2456 25.14 24Z" fill="#007A8D"/>
</svg>
