<svg width="25" height="25" viewBox="0 0 25 25" fill="none" xmlns="http://www.w3.org/2000/svg">
<g clip-path="url(#clip0)">
<path fill-rule="evenodd" clip-rule="evenodd" d="M18.2273 14.9931C17.9163 14.8375 16.3871 14.0851 16.102 13.9812C15.8169 13.8774 15.6096 13.8256 15.4022 14.1369C15.1949 14.4482 14.5988 15.1489 14.4174 15.3564C14.236 15.564 14.0545 15.5901 13.7436 15.4343C13.4325 15.2786 12.4303 14.9502 11.2423 13.8905C10.3178 13.0658 9.69351 12.0473 9.51211 11.7359C9.33066 11.4245 9.49272 11.2562 9.64844 11.1012C9.78843 10.9618 9.95952 10.7379 10.115 10.5562C10.2706 10.3747 10.3224 10.2449 10.426 10.0374C10.5297 9.82977 10.4779 9.64817 10.4 9.49251C10.3224 9.33685 9.70034 7.80589 9.44116 7.18304C9.18867 6.57664 8.93228 6.65877 8.74136 6.64915C8.56016 6.64017 8.35254 6.63826 8.14526 6.63826C7.93794 6.63826 7.60093 6.71609 7.31582 7.02737C7.03076 7.33875 6.2273 8.09129 6.2273 9.6221C6.2273 11.1531 7.34175 12.632 7.49727 12.8396C7.65278 13.0472 9.69043 16.1887 12.8105 17.5359C13.5525 17.8564 14.1319 18.0478 14.5836 18.1911C15.3287 18.4279 16.0067 18.3945 16.5426 18.3143C17.1402 18.2251 18.3828 17.562 18.642 16.8355C18.9011 16.1089 18.9011 15.4862 18.8234 15.3564C18.7457 15.2267 18.5383 15.1489 18.2273 14.9931V14.9931ZM12.5523 22.7418H12.5481C10.6916 22.7411 8.8707 22.2423 7.28223 21.2997L6.90439 21.0755L2.98867 22.1027L4.03384 18.2848L3.78789 17.8933C2.7522 16.2461 2.20518 14.3423 2.20601 12.3873C2.2083 6.68299 6.84956 2.04212 12.5564 2.04212C15.3198 2.04305 17.9175 3.12064 19.8709 5.07625C21.8243 7.03182 22.8994 9.63123 22.8983 12.3957C22.8959 18.1005 18.2547 22.7418 12.5523 22.7418V22.7418ZM21.3576 3.59026C19.0074 1.23743 15.8821 -0.058905 12.5521 -0.0602722C5.69111 -0.0602722 0.10708 5.52342 0.104297 12.3866C0.103418 14.5805 0.676563 16.7218 1.76592 18.6096L0 25.0599L6.59868 23.3289C8.41685 24.3206 10.4639 24.8433 12.5472 24.844H12.5523C19.4126 24.844 24.9972 19.2597 25 12.3965C25.0013 9.07049 23.7077 5.9431 21.3576 3.59026" fill="white"/>
</g>
<defs>
<clipPath id="clip0">
<rect width="25" height="25" fill="white"/>
</clipPath>
</defs>
</svg>
